<svg width="244" height="150" viewBox="0 0 244 150" fill="none" xmlns="http://www.w3.org/2000/svg">
<path fill-rule="evenodd" clip-rule="evenodd" d="M0 75C0 33.5786 33.5786 0 75 0H169C210.421 0 244 33.5786 244 75C244 116.421 210.421 150 169 150H75C33.5786 150 0 116.421 0 75ZM25 75C25 47.3858 47.3858 25 75 25H116V50H75C61.1929 50 50 61.1929 50 75C50 88.8071 61.1929 100 75 100H116V125H75C47.3858 125 25 102.614 25 75ZM166 25C138.386 25 116 47.3858 116 75C116 102.614 138.386 125 166 125H207V100H166C152.193 100 141 88.8071 141 75C141 61.1929 152.193 50 166 50H207V25H166Z" fill="#09090B"/>
</svg>
